<?xml version="1.0" encoding="utf-8"?>
<!-- Generator: Adobe Illustrator 22.0.0, SVG Export Plug-In . SVG Version: 6.00 Build 0)  -->
<svg version="1.1" id="Layer_1" xmlns="http://www.w3.org/2000/svg" xmlns:xlink="http://www.w3.org/1999/xlink" x="0px" y="0px"
	 viewBox="0 0 40 80" style="enable-background:new 0 0 40 80;" xml:space="preserve">
<style type="text/css">
	.st0{fill:#666666;}
	.st1{fill:#FFFFFF;}
</style>
<g>
	<path class="st0" d="M21.2,27.7v-7h2.4l0.4-2.7h-2.7v-1.7c0-0.8,0.2-1.3,1.4-1.3l1.4,0v-2.4c-0.3,0-1.1-0.1-2.1-0.1
		c-2.1,0-3.5,1.3-3.5,3.6v2H16v2.7h2.4v7H21.2L21.2,27.7z"/>
</g>
<g>
	<path class="st1" d="M21.2,67.7v-7h2.4l0.4-2.7h-2.7v-1.7c0-0.8,0.2-1.3,1.4-1.3l1.4,0v-2.4c-0.3,0-1.1-0.1-2.1-0.1
		c-2.1,0-3.5,1.3-3.5,3.6v2H16v2.7h2.4v7H21.2L21.2,67.7z"/>
</g>
</svg>
