<?xml version="1.0" encoding="utf-8"?>
<!-- Generator: Adobe Illustrator 22.0.0, SVG Export Plug-In . SVG Version: 6.00 Build 0)  -->
<svg version="1.1" id="Layer_1" xmlns="http://www.w3.org/2000/svg" xmlns:xlink="http://www.w3.org/1999/xlink" x="0px" y="0px"
	 viewBox="0 0 40 80" style="enable-background:new 0 0 40 80;" xml:space="preserve">
<style type="text/css">
	.st0{fill:#FFFFFF;}
	.st1{fill:#666666;}
</style>
<g>
	<g>
		<polygon class="st0" points="27.2,14 27.2,14 27.2,14 		"/>
		<path class="st1" d="M26.6,15.5c-0.3,0.1-0.6,0.1-0.6,0.1l0-0.1c0.3-0.2,1.1-1,1.2-1.4c0-0.2,0-0.2,0-0.2l-1,0.4l-0.8,0.4l0,0
			c-0.6-0.6-1.5-1-2.4-1c-1.7,0-3.2,1.2-3.2,2.8c0,0.3,0,0.8,0.1,1c0,0.1,0-0.1,0,0c-1.1,0-2.6-0.5-3.8-1.1
			c-2.5-1.3-2.7-2.2-2.7-2.2c-0.4,0.4-0.6,1.8-0.2,2.9c0.3,0.7,1.1,1.3,1.1,1.3l0,0c0,0-0.4,0-0.8-0.1c-0.4-0.1-0.6-0.3-0.6-0.3
			c-0.2,0.6,0.2,1.7,1.1,2.4c0.5,0.4,1.4,0.7,1.4,0.7l-1.4,0c-0.1,1.4,2.9,2.2,2.9,2.2l0,0c-0.9,0.7-1.9,1.1-3,1.1
			c-0.6,0-1.1-0.1-1.6-0.2c1.4,1.2,3.3,2,5.3,1.9c5.3-0.3,8.3-4.9,8.5-9.3l0,0c0,0,0.2-0.1,0.8-0.7c0.5-0.5,0.9-1.2,0.9-1.2
			S26.9,15.4,26.6,15.5z"/>
		<path class="st0" d="M27.2,14C27.2,14,27.2,14,27.2,14L27.2,14z"/>
	</g>
</g>
<g>
	<g>
		<polygon class="st0" points="27.2,54 27.2,54 27.2,54 		"/>
		<path class="st0" d="M26.6,55.5c-0.3,0.1-0.6,0.1-0.6,0.1l0-0.1c0.3-0.2,1.1-1,1.2-1.4c0-0.2,0-0.2,0-0.2l-1,0.4l-0.8,0.4l0,0
			c-0.6-0.6-1.5-1-2.4-1c-1.7,0-3.2,1.2-3.2,2.8c0,0.3,0,0.8,0.1,1c0,0.1,0-0.1,0,0c-1.1,0-2.6-0.5-3.8-1.1
			c-2.5-1.3-2.7-2.2-2.7-2.2c-0.4,0.4-0.6,1.8-0.2,2.9c0.3,0.7,1.1,1.3,1.1,1.3l0,0c0,0-0.4,0-0.8-0.1c-0.4-0.1-0.6-0.3-0.6-0.3
			c-0.2,0.6,0.2,1.7,1.1,2.4c0.5,0.4,1.4,0.7,1.4,0.7l-1.4,0c-0.1,1.4,2.9,2.2,2.9,2.2l0,0c-0.9,0.7-1.9,1.1-3,1.1
			c-0.6,0-1.1-0.1-1.6-0.2c1.4,1.2,3.3,2,5.3,1.9c5.3-0.3,8.3-4.9,8.5-9.3l0,0c0,0,0.2-0.1,0.8-0.7c0.5-0.5,0.9-1.2,0.9-1.2
			S26.9,55.4,26.6,55.5z"/>
		<path class="st0" d="M27.2,54C27.2,54,27.2,54,27.2,54L27.2,54z"/>
	</g>
</g>
</svg>
