<?xml version="1.0" encoding="utf-8"?>
<!-- Generator: Adobe Illustrator 22.0.0, SVG Export Plug-In . SVG Version: 6.00 Build 0)  -->
<svg version="1.1" id="Layer_1" xmlns="http://www.w3.org/2000/svg" xmlns:xlink="http://www.w3.org/1999/xlink" x="0px" y="0px"
	 viewBox="0 0 40 80" style="enable-background:new 0 0 40 80;" xml:space="preserve">
<style type="text/css">
	.st0{fill:#666666;}
	.st1{fill:#FFFFFF;}
</style>
<path class="st0" d="M29,18c0-0.2,0-0.4,0-0.6c-0.1-0.9-0.2-1.9-0.8-2.7c-0.5-0.6-1.3-0.8-2.1-0.8c-0.9-0.1-1.9-0.2-2.9-0.2
	c-1.9-0.1-3.9,0-5.8,0c-1,0-2,0-3,0.1c-1.2,0.1-2.5,0.3-3,1.5c-0.5,1.1-0.4,2.5-0.5,3.7c0,1.1,0,2.1,0,3.2c0.1,1.4,0.1,3.1,1.6,3.7
	c0.8,0.3,1.7,0.4,2.6,0.4c0.9,0.1,1.8,0.1,2.7,0.1c1.9,0,3.7,0,5.6-0.1c1.3,0,2.6,0,3.9-0.5c1.1-0.4,1.4-1.5,1.5-2.5
	c0.1-1,0.1-2,0.1-3C29,19.5,29,18.8,29,18z M18.2,22.7c0-1.8,0-3.6,0-5.5c1.6,0.9,3.1,1.8,4.7,2.7C21.3,20.9,19.7,21.8,18.2,22.7z"
	/>
<path class="st1" d="M28.8,58c0-0.2,0-0.4,0-0.6c-0.1-0.9-0.2-1.9-0.8-2.7c-0.5-0.6-1.3-0.8-2.1-0.8c-0.9-0.1-1.9-0.2-2.9-0.2
	c-1.9-0.1-3.9,0-5.8,0c-1,0-2,0-3,0.1c-1.2,0.1-2.5,0.3-3,1.5c-0.5,1.1-0.4,2.5-0.5,3.7c0,1.1,0,2.1,0,3.2c0.1,1.4,0.1,3.1,1.6,3.7
	c0.8,0.3,1.7,0.4,2.6,0.4c0.9,0.1,1.8,0.1,2.7,0.1c1.9,0,3.7,0,5.6-0.1c1.3,0,2.6,0,3.9-0.5c1.1-0.4,1.4-1.5,1.5-2.5
	c0.1-1,0.1-2,0.1-3C28.8,59.5,28.8,58.8,28.8,58z M18,62.7c0-1.8,0-3.6,0-5.5c1.6,0.9,3.1,1.8,4.7,2.7C21.1,60.9,19.6,61.8,18,62.7z
	"/>
</svg>
